<svg version="1.2" xmlns="http://www.w3.org/2000/svg" viewBox="0 0 700 600" width="700" height="600">
	<title>971-ai</title>
	<defs>
		<linearGradient id="g1" x1="49.9" y1="255.6" x2="634.6" y2="255.6" gradientUnits="userSpaceOnUse">
			<stop offset="0" stop-color="#e39a65"/>
			<stop offset="1" stop-color="#e95f8d"/>
		</linearGradient>
		<radialGradient id="g2" cx="372.9" cy="-6.8" r="446.6" gradientUnits="userSpaceOnUse">
			<stop offset="0" stop-color="#e39a65"/>
			<stop offset=".474" stop-color="#a92ffb"/>
			<stop offset=".742" stop-color="#6507fa"/>
			<stop offset=".802" stop-color="#0d0c6f"/>
		</radialGradient>
		<radialGradient id="g3" cx="99.7" cy="351.9" r="488.3" gradientUnits="userSpaceOnUse">
			<stop offset="0" stop-color="#e39a65"/>
			<stop offset=".474" stop-color="#a92ffb"/>
			<stop offset=".683" stop-color="#6507fa"/>
			<stop offset=".738" stop-color="#0d0c6f"/>
		</radialGradient>
		<radialGradient id="g4" cx="144.7" cy="253.8" r="437.9" gradientUnits="userSpaceOnUse">
			<stop offset="0" stop-color="#e39a65"/>
			<stop offset=".474" stop-color="#a92ffb"/>
			<stop offset=".726" stop-color="#6507fa"/>
			<stop offset="1" stop-color="#3919bb"/>
		</radialGradient>
		<radialGradient id="g5" cx="253.8" cy="86.4" r="446.7" gradientUnits="userSpaceOnUse">
			<stop offset="0" stop-color="#e39a65"/>
			<stop offset=".474" stop-color="#a92ffb"/>
			<stop offset=".726" stop-color="#6507fa"/>
			<stop offset="1" stop-color="#3919bb"/>
		</radialGradient>
		<linearGradient id="g6" x1="302.9" y1="11.9" x2="660.8" y2="11.9" gradientUnits="userSpaceOnUse">
			<stop offset="0" stop-color="#3919bb"/>
			<stop offset="1" stop-color="#6507fa"/>
		</linearGradient>
		<radialGradient id="g7" cx="90.7" cy="-9" r="695.7" gradientUnits="userSpaceOnUse">
			<stop offset="0" stop-color="#e39a65"/>
			<stop offset=".474" stop-color="#a92ffb"/>
			<stop offset=".726" stop-color="#6507fa"/>
			<stop offset="1" stop-color="#3919bb"/>
		</radialGradient>
		<linearGradient id="g8" x1="58.8" y1="208.5" x2="212.4" y2="208.5" gradientUnits="userSpaceOnUse">
			<stop offset="0" stop-color="#e39a65"/>
			<stop offset="1" stop-color="#e95f8d"/>
		</linearGradient>
		<radialGradient id="g9" cx="72.4" cy="127.3" r="330.7" gradientUnits="userSpaceOnUse">
			<stop offset="0" stop-color="#e39a65"/>
			<stop offset=".153" stop-color="#a92ffb"/>
			<stop offset=".409" stop-color="#3919bb"/>
			<stop offset=".931" stop-color="#3919bb"/>
		</radialGradient>
		<linearGradient id="g10" x1="78.3" y1="46.8" x2="196.9" y2="46.8" gradientUnits="userSpaceOnUse">
			<stop offset="0" stop-color="#e39a65"/>
			<stop offset=".252" stop-color="#a92ffb"/>
			<stop offset=".556" stop-color="#3919bb"/>
		</linearGradient>
		<linearGradient id="g11" x1="89.4" y1="52.5" x2="185.8" y2="52.5" gradientUnits="userSpaceOnUse">
			<stop offset="0" stop-color="#4f1fec"/>
			<stop offset="1" stop-color="#a92ffb"/>
		</linearGradient>
		<linearGradient id="g12" x1="87.1" y1="52.5" x2="183.5" y2="52.5" gradientUnits="userSpaceOnUse">
			<stop offset="0" stop-color="#4f1fec"/>
			<stop offset="1" stop-color="#a92ffb"/>
		</linearGradient>
		<linearGradient id="g13" x1="89.4" y1="52.5" x2="210.9" y2="52.5" gradientUnits="userSpaceOnUse">
			<stop offset="0" stop-color="#131060"/>
			<stop offset=".607" stop-color="#740df8"/>
			<stop offset="1" stop-color="#e8975b"/>
		</linearGradient>
		<radialGradient id="g14" cx="63.5" cy="52.8" r="216.3" gradientUnits="userSpaceOnUse">
			<stop offset="0" stop-color="#e39a65"/>
			<stop offset=".252" stop-color="#a92ffb"/>
			<stop offset=".736" stop-color="#3919bb"/>
		</radialGradient>
		<linearGradient id="g15" x1="130" y1="105.9" x2="146.8" y2="105.9" gradientUnits="userSpaceOnUse">
			<stop offset="0" stop-color="#131060"/>
			<stop offset=".607" stop-color="#740df8"/>
			<stop offset="1" stop-color="#e8975b"/>
		</linearGradient>
	</defs>
	<style>
		.s0 { opacity: .6;fill: #020230 } 
		.s1 { fill: url(#g1) } 
		.s2 { fill: url(#g2) } 
		.s3 { fill: url(#g3) } 
		.s4 { fill: url(#g4) } 
		.s5 { fill: #ffffff } 
		.s6 { fill: #06033e } 
		.s7 { fill: url(#g5) } 
		.s8 { fill: url(#g6) } 
		.s9 { opacity: .4;fill: #06033e } 
		.s10 { opacity: .5;fill: #06033e } 
		.s11 { fill: url(#g7) } 
		.s12 { fill: #e8975b } 
		.s13 { fill: #f8359e } 
		.s14 { fill: url(#g8) } 
		.s15 { fill: url(#g9) } 
		.s16 { fill: url(#g10) } 
		.s17 { fill: url(#g11) } 
		.s18 { fill: url(#g12) } 
		.s19 { fill: url(#g13) } 
		.s20 { fill: url(#g14) } 
		.s21 { fill: #0c0a78 } 
		.s22 { fill: url(#g15) } 
		.s23 { opacity: .5;fill: #ffffff } 
	</style>
	<g id="321353356351 1">
		<g id="&lt;Group&gt;">
			<path id="&lt;Path&gt;" class="s0" d="m386.2 566.6l-288.8-166.8c-4.2-2.4-3.7-6.7 1.2-9.5l185.4-107c4.8-2.8 12.2-3.1 16.4-0.7l288.8 166.8c4.2 2.4 3.7 6.6-1.1 9.4l-185.4 107.1c-4.9 2.8-12.2 3.1-16.5 0.7z"/>
			<path id="&lt;Compound Path&gt;" fill-rule="evenodd" class="s1" d="m392.9 596.7c-3.4 0-6.7-0.7-9.1-2.2l-329.7-190.3c-2.7-1.6-4.2-3.8-4.2-6.3 0-2.9 2-5.7 5.5-7.7l224.8-131.7c6.1-3.6 15.2-3.9 20.6-0.8l329.7 190.3c2.7 1.6 4.1 3.8 4.1 6.4 0 2.8-2 5.7-5.5 7.7l-224.7 131.7c-3.4 1.9-7.5 2.9-11.5 2.9zm-101.2-337.4c-3.3 0-6.9 0.8-9.7 2.4l-224.7 131.7c-2.3 1.3-3.7 3-3.7 4.5 0 1.4 1.3 2.5 2.4 3.1l329.6 190.3q0 0 0 0c4.2 2.5 12 2.1 16.9-0.8l224.7-131.6c2.3-1.4 3.7-3 3.7-4.5 0-1.5-1.2-2.5-2.3-3.1l-329.7-190.4c-1.9-1.1-4.4-1.6-7.2-1.6z"/>
			<path id="&lt;Path&gt;" class="s2" d="m666 169.8l-287.7-166.2c-2-1.1-4.1-1.3-5.9-0.8q0 0 0 0l-5.4 1.9 1.9 0.4c-0.8 0.9-1.4 2-1.8 3.3l-65 211.3c-1.6 5.2 0.7 11.6 5.3 14.2l287.7 166.1q1 0.6 2.1 0.9l-0.7 1.5 5.1-1.8c2-0.8 3.8-2.7 4.6-5.4l65.1-211.2c1.6-5.3-0.8-11.6-5.3-14.2z"/>
			<path id="&lt;Path&gt;" class="s3" d="m584.8 407.9l0.1 0.1-284.2-164.1c-4.2-2.4-11.5-2.1-16.3 0.7l-183.6 106-6.2-2.3 1.7 8.6h0.1c0.2 1.3 1.1 2.5 2.7 3.4l286.8 165.6c4.2 2.4 11.5 2.1 16.3-0.7l184.1-106.3c2.3-1.3 3.6-2.9 3.9-4.5l1.8-8.4z"/>
			<path id="&lt;Path&gt;" class="s4" d="m386.2 518.3l-288.8-166.7c-4.2-2.5-3.7-6.7 1.2-9.5l185.4-107.1c4.8-2.8 12.2-3.1 16.4-0.6l288.8 166.7c4.2 2.5 3.7 6.7-1.1 9.5l-185.4 107.1c-4.9 2.8-12.2 3.1-16.5 0.6z"/>
			<path id="&lt;Path&gt;" class="s5" d="m588.1 408.4l-185.4 107c-4.9 2.8-12.2 3.1-16.5 0.7l-288.8-166.8c-1.5-0.8-2.3-1.9-2.6-3-0.6 2 0.2 3.9 2.6 5.3l288.8 166.7c4.3 2.5 11.6 2.2 16.5-0.6l185.4-107.1c3.2-1.8 4.4-4.3 3.8-6.5-0.5 1.5-1.7 3-3.8 4.3z"/>
			<g id="&lt;Group&gt;" style="opacity: .4">
				<path id="&lt;Path&gt;" class="s6" d="m235.2 324.5l-9.8-5.6c-0.8-0.5-0.7-1.3 0.2-1.8l11.5-6.6c0.9-0.6 2.3-0.6 3.1-0.2l9.7 5.7c0.8 0.4 0.7 1.2-0.2 1.7l-11.5 6.7c-0.9 0.5-2.3 0.6-3 0.1z"/>
				<path id="&lt;Path&gt;" class="s6" d="m250.2 333.2l-9.7-5.6c-0.8-0.5-0.7-1.3 0.2-1.8l11.5-6.6c0.9-0.6 2.3-0.6 3.1-0.2l9.7 5.7c0.8 0.4 0.7 1.2-0.2 1.7l-11.5 6.7c-0.9 0.5-2.3 0.5-3.1 0.1z"/>
				<path id="&lt;Path&gt;" class="s6" d="m265.3 341.9l-9.8-5.6c-0.8-0.5-0.7-1.3 0.3-1.8l11.5-6.6c0.9-0.6 2.2-0.6 3-0.2l9.8 5.7c0.8 0.4 0.7 1.2-0.3 1.7l-11.5 6.7c-0.9 0.5-2.2 0.5-3 0.1z"/>
				<path id="&lt;Path&gt;" class="s6" d="m286.1 334.7l-9.7-5.6c-0.8-0.5-0.7-1.3 0.2-1.8l9.6-5.6c0.9-0.5 2.3-0.5 3.1-0.1l9.8 5.6c0.7 0.5 0.6 1.3-0.3 1.8l-9.6 5.6c-0.9 0.5-2.3 0.6-3.1 0.1z"/>
				<path id="&lt;Path&gt;" class="s6" d="m301.2 343.4l-9.8-5.6c-0.8-0.5-0.7-1.3 0.2-1.8l9.7-5.6c0.9-0.5 2.3-0.5 3.1-0.1l9.7 5.6c0.8 0.5 0.7 1.3-0.2 1.8l-9.7 5.6c-0.9 0.5-2.2 0.6-3 0.1z"/>
				<path id="&lt;Path&gt;" class="s6" d="m316.2 352.1l-9.7-5.6c-0.8-0.5-0.7-1.3 0.2-1.8l9.7-5.6c0.9-0.5 2.2-0.5 3-0.1l9.8 5.6c0.8 0.5 0.7 1.3-0.2 1.8l-9.7 5.6c-0.9 0.5-2.3 0.6-3.1 0.1z"/>
				<path id="&lt;Path&gt;" class="s6" d="m331.3 360.8l-9.8-5.6c-0.7-0.5-0.6-1.3 0.3-1.8l9.6-5.6c0.9-0.5 2.3-0.6 3.1-0.1l9.7 5.6c0.8 0.5 0.7 1.3-0.2 1.8l-9.7 5.6c-0.9 0.5-2.2 0.5-3 0.1z"/>
				<path id="&lt;Path&gt;" class="s6" d="m346.4 369.5l-9.8-5.6c-0.8-0.5-0.7-1.3 0.2-1.8l9.7-5.6c0.9-0.5 2.3-0.6 3-0.1l9.8 5.6c0.8 0.5 0.7 1.3-0.2 1.8l-9.7 5.6c-0.9 0.5-2.3 0.5-3 0.1z"/>
				<path id="&lt;Path&gt;" class="s6" d="m361.4 378.2l-9.7-5.6c-0.8-0.5-0.7-1.3 0.2-1.8l9.6-5.6c1-0.5 2.3-0.6 3.1-0.1l9.8 5.6c0.7 0.5 0.6 1.3-0.3 1.8l-9.6 5.6c-0.9 0.5-2.3 0.5-3.1 0.1z"/>
				<path id="&lt;Path&gt;" class="s6" d="m376.5 386.9l-9.8-5.6c-0.8-0.5-0.7-1.3 0.2-1.8l9.7-5.6c0.9-0.5 2.3-0.6 3.1-0.1l9.7 5.6c0.8 0.5 0.7 1.3-0.2 1.8l-9.7 5.6c-0.9 0.5-2.2 0.5-3 0.1z"/>
				<path id="&lt;Path&gt;" class="s6" d="m391.5 395.6l-9.7-5.7c-0.8-0.4-0.7-1.2 0.2-1.7l9.7-5.6c0.9-0.5 2.2-0.6 3-0.1l9.8 5.6c0.8 0.5 0.7 1.3-0.2 1.8l-9.7 5.6c-0.9 0.5-2.3 0.5-3.1 0.1z"/>
				<path id="&lt;Path&gt;" class="s6" d="m406.6 404.3l-9.8-5.7c-0.7-0.4-0.6-1.2 0.3-1.7l9.6-5.6c0.9-0.5 2.3-0.6 3.1-0.1l9.7 5.6c0.8 0.5 0.7 1.2-0.2 1.8l-9.6 5.5c-1 0.6-2.3 0.6-3.1 0.2z"/>
				<path id="&lt;Path&gt;" class="s6" d="m421.7 413l-9.8-5.7c-0.8-0.4-0.7-1.2 0.2-1.7l9.7-5.6c0.9-0.5 2.3-0.6 3-0.1l9.8 5.6c0.8 0.5 0.7 1.2-0.2 1.8l-9.7 5.5c-0.9 0.6-2.3 0.6-3 0.2z"/>
				<path id="&lt;Path&gt;" class="s6" d="m308.3 330.6l-9.7-5.6c-0.8-0.5-0.7-1.3 0.2-1.8l9.6-5.6c0.9-0.5 2.3-0.6 3.1-0.1l9.7 5.6c0.8 0.5 0.7 1.3-0.2 1.8l-9.6 5.6c-0.9 0.5-2.3 0.5-3.1 0.1z"/>
				<path id="&lt;Path&gt;" class="s6" d="m293 321.8l-9.7-5.7c-0.8-0.4-0.7-1.2 0.2-1.7l9.6-5.6c1-0.5 2.3-0.6 3.1-0.1l9.8 5.6c0.7 0.5 0.6 1.2-0.3 1.8l-9.6 5.5c-0.9 0.6-2.3 0.6-3.1 0.2z"/>
				<path id="&lt;Path&gt;" class="s6" d="m277.7 312.9l-21-12.1c-0.8-0.4-0.7-1.2 0.2-1.8l9.7-5.5c0.9-0.6 2.3-0.6 3-0.2l21 12.2c0.8 0.4 0.7 1.2-0.2 1.7l-9.6 5.6c-0.9 0.5-2.3 0.6-3.1 0.1z"/>
				<path id="&lt;Path&gt;" class="s6" d="m288.4 302.2l-17-9.9c-0.8-0.4-0.7-1.2 0.2-1.7l9.6-5.6c1-0.5 2.3-0.6 3.1-0.1l17 9.8c0.8 0.5 0.7 1.3-0.2 1.8l-9.6 5.6c-0.9 0.5-2.3 0.5-3.1 0.1z"/>
				<path id="&lt;Path&gt;" class="s6" d="m323.4 339.3l-9.8-5.6c-0.8-0.5-0.7-1.3 0.2-1.8l9.7-5.6c0.9-0.5 2.3-0.6 3-0.1l9.8 5.6c0.8 0.5 0.7 1.3-0.2 1.8l-9.7 5.6c-0.9 0.5-2.3 0.5-3 0.1z"/>
				<path id="&lt;Path&gt;" class="s6" d="m338.4 348l-9.7-5.6c-0.8-0.5-0.7-1.3 0.2-1.8l9.7-5.6c0.9-0.5 2.2-0.6 3-0.1l9.8 5.6c0.7 0.5 0.6 1.3-0.3 1.8l-9.6 5.6c-0.9 0.5-2.3 0.5-3.1 0.1z"/>
				<path id="&lt;Path&gt;" class="s6" d="m353.5 356.7l-9.8-5.6c-0.7-0.5-0.7-1.3 0.3-1.8l9.6-5.6c0.9-0.5 2.3-0.6 3.1-0.1l9.7 5.6c0.8 0.5 0.7 1.3-0.2 1.8l-9.7 5.6c-0.9 0.5-2.2 0.5-3 0.1z"/>
				<path id="&lt;Path&gt;" class="s6" d="m368.5 365.4l-9.7-5.7c-0.8-0.4-0.7-1.2 0.2-1.7l9.7-5.6c0.9-0.5 2.2-0.6 3-0.1l9.8 5.6c0.8 0.5 0.7 1.2-0.2 1.8l-9.7 5.5c-0.9 0.6-2.3 0.6-3.1 0.2z"/>
				<path id="&lt;Path&gt;" class="s6" d="m383.6 374.1l-9.7-5.7c-0.8-0.4-0.7-1.2 0.2-1.7l9.6-5.6c0.9-0.5 2.3-0.6 3.1-0.1l9.7 5.6c0.8 0.5 0.7 1.2-0.2 1.8l-9.6 5.5c-0.9 0.6-2.3 0.6-3.1 0.2z"/>
				<path id="&lt;Path&gt;" class="s6" d="m398.7 382.8l-9.8-5.7c-0.8-0.4-0.7-1.2 0.2-1.7l9.7-5.6c0.9-0.5 2.3-0.6 3.1-0.1l9.7 5.6c0.8 0.4 0.7 1.2-0.2 1.8l-9.7 5.5c-0.9 0.6-2.2 0.6-3 0.2z"/>
				<path id="&lt;Path&gt;" class="s6" d="m413.7 391.5l-9.7-5.7c-0.8-0.4-0.7-1.2 0.2-1.7l9.7-5.6c0.9-0.5 2.2-0.6 3-0.1l9.8 5.6c0.7 0.4 0.6 1.2-0.3 1.8l-9.6 5.5c-0.9 0.6-2.3 0.6-3.1 0.2z"/>
				<path id="&lt;Path&gt;" class="s6" d="m428.8 400.2l-9.8-5.7c-0.7-0.4-0.6-1.2 0.3-1.7l9.6-5.6c0.9-0.5 2.3-0.6 3.1-0.1l9.7 5.6c0.8 0.4 0.7 1.2-0.2 1.8l-9.7 5.5c-0.9 0.6-2.2 0.6-3 0.2z"/>
				<path id="&lt;Path&gt;" class="s6" d="m443.8 408.9l-9.7-5.7c-0.8-0.4-0.7-1.2 0.2-1.7l9.7-5.6c0.9-0.5 2.3-0.6 3-0.1l9.8 5.6c0.8 0.4 0.7 1.2-0.2 1.7l-9.7 5.6c-0.9 0.5-2.3 0.6-3.1 0.2z"/>
				<path id="&lt;Path&gt;" class="s6" d="m470.6 424.3l-21.3-12.3c-0.7-0.4-0.6-1.2 0.3-1.7l9.6-5.6c0.9-0.5 2.3-0.6 3.1-0.1l21.3 12.2c0.7 0.5 0.6 1.3-0.3 1.8l-9.6 5.6c-0.9 0.5-2.3 0.6-3.1 0.1z"/>
				<path id="&lt;Path&gt;" class="s6" d="m499.9 407.4l-17.9-10.4c-0.8-0.4-0.7-1.2 0.2-1.8l9.7-5.5c0.9-0.6 2.2-0.6 3-0.2l18 10.4c0.8 0.5 0.7 1.3-0.2 1.8l-9.7 5.6c-0.9 0.5-2.3 0.5-3.1 0.1z"/>
				<path id="&lt;Path&gt;" class="s6" d="m349.7 337.6l-9.7-5.6c-0.8-0.5-0.7-1.3 0.2-1.8l9.7-5.6c0.9-0.5 2.2-0.6 3-0.1l9.8 5.6c0.8 0.5 0.7 1.3-0.2 1.8l-9.7 5.6c-0.9 0.5-2.3 0.5-3.1 0.1z"/>
				<path id="&lt;Path&gt;" class="s6" d="m334.3 328.7l-9.7-5.7c-0.8-0.4-0.7-1.2 0.2-1.7l9.6-5.6c0.9-0.5 2.3-0.6 3.1-0.1l9.7 5.6c0.8 0.5 0.7 1.3-0.2 1.8l-9.6 5.6c-0.9 0.5-2.3 0.5-3.1 0.1z"/>
				<path id="&lt;Path&gt;" class="s6" d="m318.9 319.8l-9.8-5.7c-0.8-0.4-0.7-1.2 0.2-1.7l9.7-5.6c0.9-0.5 2.3-0.6 3.1-0.1l9.7 5.6c0.8 0.4 0.7 1.2-0.2 1.8l-9.7 5.5c-0.9 0.6-2.2 0.6-3 0.2z"/>
				<path id="&lt;Path&gt;" class="s6" d="m303.4 310.9l-9.7-5.7c-0.8-0.4-0.7-1.2 0.2-1.7l9.7-5.6c0.9-0.5 2.2-0.6 3-0.1l9.8 5.6c0.8 0.4 0.7 1.2-0.2 1.7l-9.7 5.6c-0.9 0.6-2.3 0.6-3.1 0.2z"/>
				<path id="&lt;Path&gt;" class="s6" d="m364.8 346.3l-9.8-5.6c-0.7-0.5-0.6-1.3 0.3-1.8l9.6-5.6c0.9-0.5 2.3-0.6 3.1-0.1l9.7 5.6c0.8 0.5 0.7 1.3-0.2 1.8l-9.6 5.6c-0.9 0.5-2.3 0.5-3.1 0.1z"/>
				<path id="&lt;Path&gt;" class="s6" d="m379.9 355l-9.8-5.7c-0.8-0.4-0.7-1.2 0.2-1.7l9.7-5.6c0.9-0.5 2.3-0.6 3-0.1l9.8 5.6c0.8 0.5 0.7 1.3-0.2 1.8l-9.7 5.6c-0.9 0.5-2.3 0.5-3 0.1z"/>
				<path id="&lt;Path&gt;" class="s6" d="m394.9 363.7l-9.7-5.7c-0.8-0.4-0.7-1.2 0.2-1.7l9.7-5.6c0.9-0.5 2.2-0.6 3-0.1l9.8 5.6c0.7 0.5 0.6 1.2-0.3 1.8l-9.6 5.5c-0.9 0.6-2.3 0.6-3.1 0.2z"/>
				<path id="&lt;Path&gt;" class="s6" d="m410 372.4l-9.8-5.7c-0.8-0.4-0.7-1.2 0.2-1.7l9.7-5.6c0.9-0.5 2.3-0.6 3.1-0.1l9.7 5.6c0.8 0.5 0.7 1.2-0.2 1.8l-9.7 5.5c-0.9 0.6-2.2 0.6-3 0.2z"/>
				<path id="&lt;Path&gt;" class="s6" d="m425 381.1l-9.7-5.7c-0.8-0.4-0.7-1.2 0.2-1.7l9.7-5.6c0.9-0.5 2.2-0.6 3-0.1l9.8 5.6c0.8 0.4 0.7 1.2-0.2 1.8l-9.7 5.5c-0.9 0.6-2.3 0.6-3.1 0.2z"/>
				<path id="&lt;Path&gt;" class="s6" d="m440.1 389.8l-9.8-5.7c-0.7-0.4-0.6-1.2 0.3-1.7l9.6-5.6c0.9-0.5 2.3-0.6 3.1-0.1l9.7 5.6c0.8 0.4 0.7 1.2-0.2 1.8l-9.6 5.5c-0.9 0.6-2.3 0.6-3.1 0.2z"/>
				<path id="&lt;Path&gt;" class="s6" d="m455.2 398.5l-9.8-5.7c-0.8-0.4-0.7-1.2 0.2-1.7l9.7-5.6c0.9-0.5 2.3-0.6 3-0.1l9.8 5.6c0.8 0.4 0.7 1.2-0.2 1.8l-9.7 5.5c-0.9 0.6-2.3 0.6-3 0.2z"/>
				<path id="&lt;Path&gt;" class="s6" d="m470.2 407.2l-9.7-5.7c-0.8-0.4-0.7-1.2 0.2-1.7l9.7-5.6c0.9-0.5 2.2-0.6 3-0.1l9.8 5.6c0.7 0.4 0.6 1.2-0.3 1.7l-9.6 5.6c-0.9 0.5-2.3 0.6-3.1 0.2z"/>
				<path id="&lt;Path&gt;" class="s6" d="m485.3 415.8l-9.8-5.6c-0.8-0.4-0.7-1.2 0.3-1.7l9.6-5.6c0.9-0.5 2.3-0.6 3.1-0.2l9.7 5.7c0.8 0.4 0.7 1.2-0.2 1.7l-9.7 5.6c-0.9 0.5-2.2 0.6-3 0.1z"/>
				<path id="&lt;Path&gt;" class="s6" d="m341.8 316.1l-9.7-5.6c-0.8-0.5-0.7-1.3 0.2-1.8l9.6-5.6c0.9-0.5 2.3-0.6 3.1-0.1l9.7 5.6c0.8 0.5 0.7 1.3-0.2 1.8l-9.6 5.6c-0.9 0.5-2.3 0.5-3.1 0.1z"/>
				<path id="&lt;Path&gt;" class="s6" d="m326.8 307.4l-9.7-5.6c-0.8-0.5-0.7-1.2 0.2-1.8l9.7-5.5c0.9-0.6 2.2-0.6 3-0.2l9.8 5.7c0.7 0.4 0.6 1.2-0.3 1.7l-9.6 5.6c-0.9 0.5-2.3 0.6-3.1 0.1z"/>
				<path id="&lt;Path&gt;" class="s6" d="m311.8 298.8l-9.7-5.7c-0.8-0.4-0.7-1.2 0.2-1.7l9.7-5.6c0.9-0.5 2.2-0.6 3-0.1l9.8 5.6c0.8 0.5 0.7 1.3-0.2 1.8l-9.7 5.6c-0.9 0.5-2.3 0.5-3.1 0.1z"/>
				<path id="&lt;Path&gt;" class="s6" d="m296.9 290.1l-9.8-5.6c-0.8-0.5-0.7-1.2 0.2-1.8l9.7-5.5c0.9-0.6 2.3-0.6 3-0.2l9.8 5.7c0.8 0.4 0.7 1.2-0.2 1.7l-9.7 5.6c-0.9 0.5-2.3 0.6-3 0.1z"/>
				<path id="&lt;Path&gt;" class="s6" d="m312.3 281.2l-9.8-5.6c-0.8-0.5-0.7-1.2 0.2-1.8l3.2-1.8c0.9-0.5 2.3-0.6 3.1-0.1l9.7 5.6c0.8 0.4 0.7 1.2-0.2 1.8l-3.2 1.8c-0.9 0.5-2.3 0.6-3 0.1z"/>
				<path id="&lt;Path&gt;" class="s6" d="m331.8 292.5l-9.7-5.6c-0.8-0.5-0.7-1.3 0.2-1.8l3.2-1.8c0.9-0.5 2.3-0.6 3-0.1l9.8 5.6c0.8 0.4 0.7 1.2-0.2 1.7l-3.2 1.9c-0.9 0.5-2.3 0.6-3.1 0.1z"/>
				<path id="&lt;Path&gt;" class="s6" d="m346.7 301.1l-9.7-5.6c-0.8-0.4-0.7-1.2 0.2-1.8l3.2-1.8c0.9-0.5 2.3-0.6 3.1-0.1l9.7 5.6c0.8 0.5 0.7 1.2-0.2 1.8l-3.2 1.8c-0.9 0.5-2.3 0.6-3.1 0.1z"/>
				<path id="&lt;Path&gt;" class="s6" d="m361.7 309.8l-9.8-5.7c-0.8-0.4-0.7-1.2 0.2-1.7l3.2-1.9c0.9-0.5 2.3-0.6 3.1-0.1l9.7 5.6c0.8 0.5 0.7 1.3-0.2 1.8l-3.2 1.8c-0.9 0.5-2.3 0.6-3 0.2z"/>
				<path id="&lt;Path&gt;" class="s6" d="m376.6 318.4l-9.8-5.7c-0.7-0.4-0.7-1.2 0.3-1.7l3.1-1.9c1-0.5 2.3-0.5 3.1-0.1l9.8 5.6c0.7 0.5 0.6 1.3-0.3 1.8l-3.2 1.8c-0.9 0.6-2.2 0.6-3 0.2z"/>
				<path id="&lt;Path&gt;" class="s6" d="m459.9 366.5l-9.8-5.7c-0.7-0.4-0.6-1.2 0.3-1.7l3.2-1.9c0.9-0.5 2.2-0.5 3-0.1l9.8 5.6c0.8 0.5 0.7 1.3-0.3 1.8l-3.1 1.8c-0.9 0.6-2.3 0.6-3.1 0.2z"/>
				<path id="&lt;Path&gt;" class="s6" d="m474.8 375.1l-9.7-5.6c-0.8-0.5-0.7-1.3 0.2-1.8l3.2-1.9c0.9-0.5 2.3-0.5 3-0.1l9.8 5.7c0.8 0.4 0.7 1.2-0.2 1.7l-3.2 1.9c-0.9 0.5-2.3 0.5-3.1 0.1z"/>
				<path id="&lt;Path&gt;" class="s6" d="m489.7 383.7l-9.7-5.6c-0.8-0.5-0.7-1.3 0.2-1.8l3.2-1.8c0.9-0.6 2.3-0.6 3.1-0.2l9.7 5.7c0.8 0.4 0.7 1.2-0.2 1.7l-3.2 1.9c-0.9 0.5-2.3 0.6-3.1 0.1z"/>
				<path id="&lt;Path&gt;" class="s6" d="m504.7 392.3l-9.8-5.6c-0.8-0.5-0.7-1.3 0.2-1.8l3.2-1.8c0.9-0.5 2.3-0.6 3.1-0.1l9.7 5.6c0.8 0.4 0.7 1.2-0.2 1.7l-3.2 1.9c-0.9 0.5-2.2 0.6-3 0.1z"/>
				<path id="&lt;Path&gt;" class="s6" d="m356.9 324.8l-9.8-5.7c-0.8-0.4-0.7-1.2 0.2-1.7l9.7-5.6c0.9-0.5 2.3-0.6 3.1-0.1l9.7 5.6c0.8 0.5 0.7 1.2-0.2 1.8l-9.7 5.6c-0.9 0.5-2.2 0.5-3 0.1z"/>
				<path id="&lt;Path&gt;" class="s6" d="m371.9 333.5l-9.7-5.7c-0.8-0.4-0.7-1.2 0.2-1.7l9.7-5.6c0.9-0.5 2.2-0.6 3-0.1l9.8 5.6c0.7 0.5 0.7 1.2-0.3 1.8l-9.6 5.5c-0.9 0.6-2.3 0.6-3.1 0.2z"/>
				<path id="&lt;Path&gt;" class="s6" d="m387 342.2l-9.8-5.7c-0.7-0.4-0.6-1.2 0.3-1.7l9.6-5.6c0.9-0.5 2.3-0.6 3.1-0.1l9.7 5.6c0.8 0.5 0.7 1.2-0.2 1.8l-9.7 5.5c-0.9 0.6-2.2 0.6-3 0.2z"/>
				<path id="&lt;Path&gt;" class="s6" d="m402.1 350.9l-9.8-5.7c-0.8-0.4-0.7-1.2 0.2-1.7l9.7-5.6c0.9-0.5 2.3-0.6 3-0.1l9.8 5.6c0.8 0.4 0.7 1.2-0.2 1.8l-9.7 5.5c-0.9 0.6-2.3 0.6-3 0.2z"/>
				<path id="&lt;Path&gt;" class="s6" d="m417.1 359.6l-9.7-5.7c-0.8-0.4-0.7-1.2 0.2-1.7l9.6-5.6c0.9-0.5 2.3-0.6 3.1-0.1l9.7 5.6c0.8 0.4 0.7 1.2-0.2 1.8l-9.6 5.5c-0.9 0.6-2.3 0.6-3.1 0.2z"/>
				<path id="&lt;Path&gt;" class="s6" d="m432.2 368.3l-9.8-5.7c-0.8-0.4-0.7-1.2 0.2-1.7l9.7-5.6c0.9-0.5 2.3-0.6 3.1-0.1l9.7 5.6c0.8 0.4 0.7 1.2-0.2 1.7l-9.7 5.6c-0.9 0.5-2.2 0.6-3 0.2z"/>
				<path id="&lt;Path&gt;" class="s6" d="m447.2 376.9l-9.7-5.6c-0.8-0.4-0.7-1.2 0.2-1.7l9.7-5.6c0.9-0.5 2.2-0.6 3-0.2l9.8 5.7c0.8 0.4 0.7 1.2-0.2 1.7l-9.7 5.6c-0.9 0.5-2.3 0.6-3.1 0.1z"/>
				<path id="&lt;Path&gt;" class="s6" d="m462.3 385.6l-9.8-5.6c-0.7-0.4-0.6-1.2 0.3-1.8l9.6-5.5c0.9-0.6 2.3-0.6 3.1-0.2l9.7 5.7c0.8 0.4 0.7 1.2-0.2 1.7l-9.7 5.6c-0.9 0.5-2.2 0.6-3 0.1z"/>
				<path id="&lt;Path&gt;" class="s6" d="m477.4 394.3l-9.8-5.6c-0.8-0.4-0.7-1.2 0.2-1.8l9.7-5.5c0.9-0.6 2.3-0.6 3-0.2l9.8 5.7c0.8 0.4 0.7 1.2-0.2 1.7l-9.7 5.6c-0.9 0.5-2.3 0.6-3 0.1z"/>
				<path id="&lt;Path&gt;" class="s6" d="m270.8 325.9l-28.8-16.6c-0.7-0.5-0.6-1.3 0.3-1.8l9.6-5.6c0.9-0.5 2.3-0.6 3.1-0.1l28.7 16.6c0.8 0.4 0.7 1.2-0.2 1.7l-9.7 5.6c-0.9 0.5-2.3 0.6-3 0.2z"/>
				<path id="&lt;Path&gt;" class="s6" d="m455.8 432.7l-28.7-16.6c-0.8-0.5-0.7-1.3 0.2-1.8l9.6-5.6c1-0.5 2.3-0.5 3.1-0.1l28.7 16.6c0.8 0.5 0.7 1.2-0.2 1.8l-9.7 5.5c-0.9 0.6-2.2 0.6-3 0.2z"/>
				<path id="&lt;Path&gt;" class="s6" d="m395.6 417.1l-9.8-5.6c-0.8-0.5-0.7-1.3 0.2-1.8l11.5-6.6c0.9-0.6 2.3-0.6 3.1-0.2l9.7 5.7c0.8 0.4 0.7 1.2-0.2 1.7l-11.5 6.7c-0.9 0.5-2.3 0.6-3 0.1z"/>
				<path id="&lt;Path&gt;" class="s6" d="m286.2 354l-15.6-9c-0.8-0.5-0.7-1.3 0.2-1.8l11.5-6.7c0.9-0.5 2.3-0.5 3.1-0.1l15.6 9c0.8 0.5 0.7 1.3-0.2 1.8l-11.6 6.6c-0.9 0.6-2.2 0.6-3 0.2z"/>
				<path id="&lt;Path&gt;" class="s6" d="m381 408.7l-15.5-9c-0.8-0.4-0.7-1.2 0.2-1.7l11.5-6.7c0.9-0.5 2.3-0.6 3-0.1l15.6 9c0.8 0.4 0.7 1.2-0.2 1.8l-11.5 6.6c-0.9 0.5-2.3 0.6-3.1 0.1z"/>
				<path id="&lt;Path&gt;" class="s6" d="m307.9 366.5l-15.6-9c-0.8-0.4-0.7-1.2 0.2-1.8l11.6-6.6c0.9-0.5 2.2-0.6 3-0.1l15.6 9c0.8 0.4 0.7 1.2-0.2 1.7l-11.5 6.7c-0.9 0.5-2.3 0.6-3.1 0.1z"/>
				<path id="&lt;Path&gt;" class="s6" d="m307.2 349l67.8 39.2c0.9 0.5 0.9 1.3 0 1.7l-11.7 6.8c-0.9 0.5-2.2 0.5-3.1 0l-67.8-39.1z"/>
				<path id="&lt;Path&gt;" class="s6" d="m437.7 432.9l10.8 6.2c0.7 0.4 0.6 1.1-0.2 1.5l-4.7 2.7c-0.7 0.4-1.8 0.5-2.5 0.1l-10.8-6.3c-0.7-0.3-0.6-1 0.1-1.4l4.7-2.7c0.8-0.5 1.9-0.5 2.6-0.1z"/>
				<path id="&lt;Path&gt;" class="s6" d="m422.5 424.1l10.8 6.3c0.7 0.3 0.6 1-0.2 1.4l-4.7 2.7c-0.7 0.5-1.8 0.5-2.5 0.1l-10.8-6.2c-0.7-0.4-0.6-1 0.2-1.5l4.7-2.7c0.7-0.4 1.8-0.5 2.5-0.1z"/>
				<path id="&lt;Path&gt;" class="s6" d="m407.4 415.4l10.9 6.3c0.6 0.4 0.5 1-0.2 1.4l-4.7 2.7c-0.8 0.5-1.9 0.5-2.5 0.1l-10.9-6.2c-0.6-0.4-0.5-1 0.2-1.5l4.7-2.7c0.7-0.4 1.9-0.5 2.5-0.1z"/>
				<path id="&lt;Path&gt;" class="s6" d="m430.8 419.3l10.8 6.3c0.7 0.3 0.6 1-0.1 1.4l-4.7 2.7c-0.8 0.5-1.9 0.5-2.5 0.1l-10.9-6.2c-0.7-0.4-0.6-1 0.2-1.5l4.7-2.7c0.7-0.4 1.8-0.5 2.5-0.1z"/>
			</g>
			<g id="&lt;Group&gt;" style="opacity: .4">
				<path id="&lt;Path&gt;" class="s6" d="m235.2 324.5l-9.8-5.6c-0.8-0.5-0.7-1.3 0.2-1.8l11.5-6.6c0.9-0.6 2.3-0.6 3.1-0.2l9.7 5.7c0.8 0.4 0.7 1.2-0.2 1.7l-11.5 6.7c-0.9 0.5-2.3 0.6-3 0.1z"/>
				<path id="&lt;Path&gt;" class="s6" d="m250.2 333.2l-9.7-5.6c-0.8-0.5-0.7-1.3 0.2-1.8l11.5-6.6c0.9-0.6 2.3-0.6 3.1-0.2l9.7 5.7c0.8 0.4 0.7 1.2-0.2 1.7l-11.5 6.7c-0.9 0.5-2.3 0.5-3.1 0.1z"/>
				<path id="&lt;Path&gt;" class="s6" d="m265.3 341.9l-9.8-5.6c-0.8-0.5-0.7-1.3 0.3-1.8l11.5-6.6c0.9-0.6 2.2-0.6 3-0.2l9.8 5.7c0.8 0.4 0.7 1.2-0.3 1.7l-11.5 6.7c-0.9 0.5-2.2 0.5-3 0.1z"/>
				<path id="&lt;Path&gt;" class="s6" d="m286.1 334.7l-9.7-5.6c-0.8-0.5-0.7-1.3 0.2-1.8l9.6-5.6c0.9-0.5 2.3-0.5 3.1-0.1l9.8 5.6c0.7 0.5 0.6 1.3-0.3 1.8l-9.6 5.6c-0.9 0.5-2.3 0.6-3.1 0.1z"/>
				<path id="&lt;Path&gt;" class="s6" d="m301.2 343.4l-9.8-5.6c-0.8-0.5-0.7-1.3 0.2-1.8l9.7-5.6c0.9-0.5 2.3-0.5 3.1-0.1l9.7 5.6c0.8 0.5 0.7 1.3-0.2 1.8l-9.7 5.6c-0.9 0.5-2.2 0.6-3 0.1z"/>
				<path id="&lt;Path&gt;" class="s6" d="m316.2 352.1l-9.7-5.6c-0.8-0.5-0.7-1.3 0.2-1.8l9.7-5.6c0.9-0.5 2.2-0.5 3-0.1l9.8 5.6c0.8 0.5 0.7 1.3-0.2 1.8l-9.7 5.6c-0.9 0.5-2.3 0.6-3.1 0.1z"/>
				<path id="&lt;Path&gt;" class="s6" d="m331.3 360.8l-9.8-5.6c-0.7-0.5-0.6-1.3 0.3-1.8l9.6-5.6c0.9-0.5 2.3-0.6 3.1-0.1l9.7 5.6c0.8 0.5 0.7 1.3-0.2 1.8l-9.7 5.6c-0.9 0.5-2.2 0.5-3 0.1z"/>
				<path id="&lt;Path&gt;" class="s6" d="m346.4 369.5l-9.8-5.6c-0.8-0.5-0.7-1.3 0.2-1.8l9.7-5.6c0.9-0.5 2.3-0.6 3-0.1l9.8 5.6c0.8 0.5 0.7 1.3-0.2 1.8l-9.7 5.6c-0.9 0.5-2.3 0.5-3 0.1z"/>
				<path id="&lt;Path&gt;" class="s6" d="m361.4 378.2l-9.7-5.6c-0.8-0.5-0.7-1.3 0.2-1.8l9.6-5.6c1-0.5 2.3-0.6 3.1-0.1l9.8 5.6c0.7 0.5 0.6 1.3-0.3 1.8l-9.6 5.6c-0.9 0.5-2.3 0.5-3.1 0.1z"/>
				<path id="&lt;Path&gt;" class="s6" d="m376.5 386.9l-9.8-5.6c-0.8-0.5-0.7-1.3 0.2-1.8l9.7-5.6c0.9-0.5 2.3-0.6 3.1-0.1l9.7 5.6c0.8 0.5 0.7 1.3-0.2 1.8l-9.7 5.6c-0.9 0.5-2.2 0.5-3 0.1z"/>
				<path id="&lt;Path&gt;" class="s6" d="m391.5 395.6l-9.7-5.7c-0.8-0.4-0.7-1.2 0.2-1.7l9.7-5.6c0.9-0.5 2.2-0.6 3-0.1l9.8 5.6c0.8 0.5 0.7 1.3-0.2 1.8l-9.7 5.6c-0.9 0.5-2.3 0.5-3.1 0.1z"/>
				<path id="&lt;Path&gt;" class="s6" d="m406.6 404.3l-9.8-5.7c-0.7-0.4-0.6-1.2 0.3-1.7l9.6-5.6c0.9-0.5 2.3-0.6 3.1-0.1l9.7 5.6c0.8 0.5 0.7 1.2-0.2 1.8l-9.6 5.5c-1 0.6-2.3 0.6-3.1 0.2z"/>
				<path id="&lt;Path&gt;" class="s6" d="m421.7 413l-9.8-5.7c-0.8-0.4-0.7-1.2 0.2-1.7l9.7-5.6c0.9-0.5 2.3-0.6 3-0.1l9.8 5.6c0.8 0.5 0.7 1.2-0.2 1.8l-9.7 5.5c-0.9 0.6-2.3 0.6-3 0.2z"/>
				<path id="&lt;Path&gt;" class="s6" d="m308.3 330.6l-9.7-5.6c-0.8-0.5-0.7-1.3 0.2-1.8l9.6-5.6c0.9-0.5 2.3-0.6 3.1-0.1l9.7 5.6c0.8 0.5 0.7 1.3-0.2 1.8l-9.6 5.6c-0.9 0.5-2.3 0.5-3.1 0.1z"/>
				<path id="&lt;Path&gt;" class="s6" d="m293 321.8l-9.7-5.7c-0.8-0.4-0.7-1.2 0.2-1.7l9.6-5.6c1-0.5 2.3-0.6 3.1-0.1l9.8 5.6c0.7 0.5 0.6 1.2-0.3 1.8l-9.6 5.5c-0.9 0.6-2.3 0.6-3.1 0.2z"/>
				<path id="&lt;Path&gt;" class="s6" d="m277.7 312.9l-21-12.1c-0.8-0.4-0.7-1.2 0.2-1.8l9.7-5.5c0.9-0.6 2.3-0.6 3-0.2l21 12.2c0.8 0.4 0.7 1.2-0.2 1.7l-9.6 5.6c-0.9 0.5-2.3 0.6-3.1 0.1z"/>
				<path id="&lt;Path&gt;" class="s6" d="m288.4 302.2l-17-9.9c-0.8-0.4-0.7-1.2 0.2-1.7l9.6-5.6c1-0.5 2.3-0.6 3.1-0.1l17 9.8c0.8 0.5 0.7 1.3-0.2 1.8l-9.6 5.6c-0.9 0.5-2.3 0.5-3.1 0.1z"/>
				<path id="&lt;Path&gt;" class="s6" d="m323.4 339.3l-9.8-5.6c-0.8-0.5-0.7-1.3 0.2-1.8l9.7-5.6c0.9-0.5 2.3-0.6 3-0.1l9.8 5.6c0.8 0.5 0.7 1.3-0.2 1.8l-9.7 5.6c-0.9 0.5-2.3 0.5-3 0.1z"/>
				<path id="&lt;Path&gt;" class="s6" d="m338.4 348l-9.7-5.6c-0.8-0.5-0.7-1.3 0.2-1.8l9.7-5.6c0.9-0.5 2.2-0.6 3-0.1l9.8 5.6c0.7 0.5 0.6 1.3-0.3 1.8l-9.6 5.6c-0.9 0.5-2.3 0.5-3.1 0.1z"/>
				<path id="&lt;Path&gt;" class="s6" d="m353.5 356.7l-9.8-5.6c-0.7-0.5-0.7-1.3 0.3-1.8l9.6-5.6c0.9-0.5 2.3-0.6 3.1-0.1l9.7 5.6c0.8 0.5 0.7 1.3-0.2 1.8l-9.7 5.6c-0.9 0.5-2.2 0.5-3 0.1z"/>
				<path id="&lt;Path&gt;" class="s6" d="m368.5 365.4l-9.7-5.7c-0.8-0.4-0.7-1.2 0.2-1.7l9.7-5.6c0.9-0.5 2.2-0.6 3-0.1l9.8 5.6c0.8 0.5 0.7 1.2-0.2 1.8l-9.7 5.5c-0.9 0.6-2.3 0.6-3.1 0.2z"/>
				<path id="&lt;Path&gt;" class="s6" d="m383.6 374.1l-9.7-5.7c-0.8-0.4-0.7-1.2 0.2-1.7l9.6-5.6c0.9-0.5 2.3-0.6 3.1-0.1l9.7 5.6c0.8 0.5 0.7 1.2-0.2 1.8l-9.6 5.5c-0.9 0.6-2.3 0.6-3.1 0.2z"/>
				<path id="&lt;Path&gt;" class="s6" d="m398.7 382.8l-9.8-5.7c-0.8-0.4-0.7-1.2 0.2-1.7l9.7-5.6c0.9-0.5 2.3-0.6 3.1-0.1l9.7 5.6c0.8 0.4 0.7 1.2-0.2 1.8l-9.7 5.5c-0.9 0.6-2.2 0.6-3 0.2z"/>
				<path id="&lt;Path&gt;" class="s6" d="m413.7 391.5l-9.7-5.7c-0.8-0.4-0.7-1.2 0.2-1.7l9.7-5.6c0.9-0.5 2.2-0.6 3-0.1l9.8 5.6c0.7 0.4 0.6 1.2-0.3 1.8l-9.6 5.5c-0.9 0.6-2.3 0.6-3.1 0.2z"/>
				<path id="&lt;Path&gt;" class="s6" d="m428.8 400.2l-9.8-5.7c-0.7-0.4-0.6-1.2 0.3-1.7l9.6-5.6c0.9-0.5 2.3-0.6 3.1-0.1l9.7 5.6c0.8 0.4 0.7 1.2-0.2 1.8l-9.7 5.5c-0.9 0.6-2.2 0.6-3 0.2z"/>
				<path id="&lt;Path&gt;" class="s6" d="m443.8 408.9l-9.7-5.7c-0.8-0.4-0.7-1.2 0.2-1.7l9.7-5.6c0.9-0.5 2.3-0.6 3-0.1l9.8 5.6c0.8 0.4 0.7 1.2-0.2 1.7l-9.7 5.6c-0.9 0.5-2.3 0.6-3.1 0.2z"/>
				<path id="&lt;Path&gt;" class="s6" d="m470.6 424.3l-21.3-12.3c-0.7-0.4-0.6-1.2 0.3-1.7l9.6-5.6c0.9-0.5 2.3-0.6 3.1-0.1l21.3 12.2c0.7 0.5 0.6 1.3-0.3 1.8l-9.6 5.6c-0.9 0.5-2.3 0.6-3.1 0.1z"/>
				<path id="&lt;Path&gt;" class="s6" d="m499.9 407.4l-17.9-10.4c-0.8-0.4-0.7-1.2 0.2-1.8l9.7-5.5c0.9-0.6 2.2-0.6 3-0.2l18 10.4c0.8 0.5 0.7 1.3-0.2 1.8l-9.7 5.6c-0.9 0.5-2.3 0.5-3.1 0.1z"/>
				<path id="&lt;Path&gt;" class="s6" d="m349.7 337.6l-9.7-5.6c-0.8-0.5-0.7-1.3 0.2-1.8l9.7-5.6c0.9-0.5 2.2-0.6 3-0.1l9.8 5.6c0.8 0.5 0.7 1.3-0.2 1.8l-9.7 5.6c-0.9 0.5-2.3 0.5-3.1 0.1z"/>
				<path id="&lt;Path&gt;" class="s6" d="m334.3 328.7l-9.7-5.7c-0.8-0.4-0.7-1.2 0.2-1.7l9.6-5.6c0.9-0.5 2.3-0.6 3.1-0.1l9.7 5.6c0.8 0.5 0.7 1.3-0.2 1.8l-9.6 5.6c-0.9 0.5-2.3 0.5-3.1 0.1z"/>
				<path id="&lt;Path&gt;" class="s6" d="m318.9 319.8l-9.8-5.7c-0.8-0.4-0.7-1.2 0.2-1.7l9.7-5.6c0.9-0.5 2.3-0.6 3.1-0.1l9.7 5.6c0.8 0.4 0.7 1.2-0.2 1.8l-9.7 5.5c-0.9 0.6-2.2 0.6-3 0.2z"/>
				<path id="&lt;Path&gt;" class="s6" d="m303.4 310.9l-9.7-5.7c-0.8-0.4-0.7-1.2 0.2-1.7l9.7-5.6c0.9-0.5 2.2-0.6 3-0.1l9.8 5.6c0.8 0.4 0.7 1.2-0.2 1.7l-9.7 5.6c-0.9 0.6-2.3 0.6-3.1 0.2z"/>
				<path id="&lt;Path&gt;" class="s6" d="m364.8 346.3l-9.8-5.6c-0.7-0.5-0.6-1.3 0.3-1.8l9.6-5.6c0.9-0.5 2.3-0.6 3.1-0.1l9.7 5.6c0.8 0.5 0.7 1.3-0.2 1.8l-9.6 5.6c-0.9 0.5-2.3 0.5-3.1 0.1z"/>
				<path id="&lt;Path&gt;" class="s6" d="m379.9 355l-9.8-5.7c-0.8-0.4-0.7-1.2 0.2-1.7l9.7-5.6c0.9-0.5 2.3-0.6 3-0.1l9.8 5.6c0.8 0.5 0.7 1.3-0.2 1.8l-9.7 5.6c-0.9 0.5-2.3 0.5-3 0.1z"/>
				<path id="&lt;Path&gt;" class="s6" d="m394.9 363.7l-9.7-5.7c-0.8-0.4-0.7-1.2 0.2-1.7l9.7-5.6c0.9-0.5 2.2-0.6 3-0.1l9.8 5.6c0.7 0.5 0.6 1.2-0.3 1.8l-9.6 5.5c-0.9 0.6-2.3 0.6-3.1 0.2z"/>
				<path id="&lt;Path&gt;" class="s6" d="m410 372.4l-9.8-5.7c-0.8-0.4-0.7-1.2 0.2-1.7l9.7-5.6c0.9-0.5 2.3-0.6 3.1-0.1l9.7 5.6c0.8 0.5 0.7 1.2-0.2 1.8l-9.7 5.5c-0.9 0.6-2.2 0.6-3 0.2z"/>
				<path id="&lt;Path&gt;" class="s6" d="m425 381.1l-9.7-5.7c-0.8-0.4-0.7-1.2 0.2-1.7l9.7-5.6c0.9-0.5 2.2-0.6 3-0.1l9.8 5.6c0.8 0.4 0.7 1.2-0.2 1.8l-9.7 5.5c-0.9 0.6-2.3 0.6-3.1 0.2z"/>
				<path id="&lt;Path&gt;" class="s6" d="m440.1 389.8l-9.8-5.7c-0.7-0.4-0.6-1.2 0.3-1.7l9.6-5.6c0.9-0.5 2.3-0.6 3.1-0.1l9.7 5.6c0.8 0.4 0.7 1.2-0.2 1.8l-9.6 5.5c-0.9 0.6-2.3 0.6-3.1 0.2z"/>
				<path id="&lt;Path&gt;" class="s6" d="m455.2 398.5l-9.8-5.7c-0.8-0.4-0.7-1.2 0.2-1.7l9.7-5.6c0.9-0.5 2.3-0.6 3-0.1l9.8 5.6c0.8 0.4 0.7 1.2-0.2 1.8l-9.7 5.5c-0.9 0.6-2.3 0.6-3 0.2z"/>
				<path id="&lt;Path&gt;" class="s6" d="m470.2 407.2l-9.7-5.7c-0.8-0.4-0.7-1.2 0.2-1.7l9.7-5.6c0.9-0.5 2.2-0.6 3-0.1l9.8 5.6c0.7 0.4 0.6 1.2-0.3 1.7l-9.6 5.6c-0.9 0.5-2.3 0.6-3.1 0.2z"/>
				<path id="&lt;Path&gt;" class="s6" d="m485.3 415.8l-9.8-5.6c-0.8-0.4-0.7-1.2 0.3-1.7l9.6-5.6c0.9-0.5 2.3-0.6 3.1-0.2l9.7 5.7c0.8 0.4 0.7 1.2-0.2 1.7l-9.7 5.6c-0.9 0.5-2.2 0.6-3 0.1z"/>
				<path id="&lt;Path&gt;" class="s6" d="m341.8 316.1l-9.7-5.6c-0.8-0.5-0.7-1.3 0.2-1.8l9.6-5.6c0.9-0.5 2.3-0.6 3.1-0.1l9.7 5.6c0.8 0.5 0.7 1.3-0.2 1.8l-9.6 5.6c-0.9 0.5-2.3 0.5-3.1 0.1z"/>
				<path id="&lt;Path&gt;" class="s6" d="m326.8 307.4l-9.7-5.6c-0.8-0.5-0.7-1.2 0.2-1.8l9.7-5.5c0.9-0.6 2.2-0.6 3-0.2l9.8 5.7c0.7 0.4 0.6 1.2-0.3 1.7l-9.6 5.6c-0.9 0.5-2.3 0.6-3.1 0.1z"/>
				<path id="&lt;Path&gt;" class="s6" d="m311.8 298.8l-9.7-5.7c-0.8-0.4-0.7-1.2 0.2-1.7l9.7-5.6c0.9-0.5 2.2-0.6 3-0.1l9.8 5.6c0.8 0.5 0.7 1.3-0.2 1.8l-9.7 5.6c-0.9 0.5-2.3 0.5-3.1 0.1z"/>
				<path id="&lt;Path&gt;" class="s6" d="m296.9 290.1l-9.8-5.6c-0.8-0.5-0.7-1.2 0.2-1.8l9.7-5.5c0.9-0.6 2.3-0.6 3-0.2l9.8 5.7c0.8 0.4 0.7 1.2-0.2 1.7l-9.7 5.6c-0.9 0.5-2.3 0.6-3 0.1z"/>
				<path id="&lt;Path&gt;" class="s6" d="m312.3 281.2l-9.8-5.6c-0.8-0.5-0.7-1.2 0.2-1.8l3.2-1.8c0.9-0.5 2.3-0.6 3.1-0.1l9.7 5.6c0.8 0.4 0.7 1.2-0.2 1.8l-3.2 1.8c-0.9 0.5-2.3 0.6-3 0.1z"/>
				<path id="&lt;Path&gt;" class="s6" d="m331.8 292.5l-9.7-5.6c-0.8-0.5-0.7-1.3 0.2-1.8l3.2-1.8c0.9-0.5 2.3-0.6 3-0.1l9.8 5.6c0.8 0.4 0.7 1.2-0.2 1.7l-3.2 1.9c-0.9 0.5-2.3 0.6-3.1 0.1z"/>
				<path id="&lt;Path&gt;" class="s6" d="m346.7 301.1l-9.7-5.6c-0.8-0.4-0.7-1.2 0.2-1.8l3.2-1.8c0.9-0.5 2.3-0.6 3.1-0.1l9.7 5.6c0.8 0.5 0.7 1.2-0.2 1.8l-3.2 1.8c-0.9 0.5-2.3 0.6-3.1 0.1z"/>
				<path id="&lt;Path&gt;" class="s6" d="m361.7 309.8l-9.8-5.7c-0.8-0.4-0.7-1.2 0.2-1.7l3.2-1.9c0.9-0.5 2.3-0.6 3.1-0.1l9.7 5.6c0.8 0.5 0.7 1.3-0.2 1.8l-3.2 1.8c-0.9 0.5-2.3 0.6-3 0.2z"/>
				<path id="&lt;Path&gt;" class="s6" d="m376.6 318.4l-9.8-5.7c-0.7-0.4-0.7-1.2 0.3-1.7l3.1-1.9c1-0.5 2.3-0.5 3.1-0.1l9.8 5.6c0.7 0.5 0.6 1.3-0.3 1.8l-3.2 1.8c-0.9 0.6-2.2 0.6-3 0.2z"/>
				<path id="&lt;Path&gt;" class="s6" d="m459.9 366.5l-9.8-5.7c-0.7-0.4-0.6-1.2 0.3-1.7l3.2-1.9c0.9-0.5 2.2-0.5 3-0.1l9.8 5.6c0.8 0.5 0.7 1.3-0.3 1.8l-3.1 1.8c-0.9 0.6-2.3 0.6-3.1 0.2z"/>
				<path id="&lt;Path&gt;" class="s6" d="m474.8 375.1l-9.7-5.6c-0.8-0.5-0.7-1.3 0.2-1.8l3.2-1.9c0.9-0.5 2.3-0.5 3-0.1l9.8 5.7c0.8 0.4 0.7 1.2-0.2 1.7l-3.2 1.9c-0.9 0.5-2.3 0.5-3.1 0.1z"/>
				<path id="&lt;Path&gt;" class="s6" d="m489.7 383.7l-9.7-5.6c-0.8-0.5-0.7-1.3 0.2-1.8l3.2-1.8c0.9-0.6 2.3-0.6 3.1-0.2l9.7 5.7c0.8 0.4 0.7 1.2-0.2 1.7l-3.2 1.9c-0.9 0.5-2.3 0.6-3.1 0.1z"/>
				<path id="&lt;Path&gt;" class="s6" d="m504.7 392.3l-9.8-5.6c-0.8-0.5-0.7-1.3 0.2-1.8l3.2-1.8c0.9-0.5 2.3-0.6 3.1-0.1l9.7 5.6c0.8 0.4 0.7 1.2-0.2 1.7l-3.2 1.9c-0.9 0.5-2.2 0.6-3 0.1z"/>
				<path id="&lt;Path&gt;" class="s6" d="m356.9 324.8l-9.8-5.7c-0.8-0.4-0.7-1.2 0.2-1.7l9.7-5.6c0.9-0.5 2.3-0.6 3.1-0.1l9.7 5.6c0.8 0.5 0.7 1.2-0.2 1.8l-9.7 5.6c-0.9 0.5-2.2 0.5-3 0.1z"/>
				<path id="&lt;Path&gt;" class="s6" d="m371.9 333.5l-9.7-5.7c-0.8-0.4-0.7-1.2 0.2-1.7l9.7-5.6c0.9-0.5 2.2-0.6 3-0.1l9.8 5.6c0.7 0.5 0.7 1.2-0.3 1.8l-9.6 5.5c-0.9 0.6-2.3 0.6-3.1 0.2z"/>
				<path id="&lt;Path&gt;" class="s6" d="m387 342.2l-9.8-5.7c-0.7-0.4-0.6-1.2 0.3-1.7l9.6-5.6c0.9-0.5 2.3-0.6 3.1-0.1l9.7 5.6c0.8 0.5 0.7 1.2-0.2 1.8l-9.7 5.5c-0.9 0.6-2.2 0.6-3 0.2z"/>
				<path id="&lt;Path&gt;" class="s6" d="m402.1 350.9l-9.8-5.7c-0.8-0.4-0.7-1.2 0.2-1.7l9.7-5.6c0.9-0.5 2.3-0.6 3-0.1l9.8 5.6c0.8 0.4 0.7 1.2-0.2 1.8l-9.7 5.5c-0.9 0.6-2.3 0.6-3 0.2z"/>
				<path id="&lt;Path&gt;" class="s6" d="m417.1 359.6l-9.7-5.7c-0.8-0.4-0.7-1.2 0.2-1.7l9.6-5.6c0.9-0.5 2.3-0.6 3.1-0.1l9.7 5.6c0.8 0.4 0.7 1.2-0.2 1.8l-9.6 5.5c-0.9 0.6-2.3 0.6-3.1 0.2z"/>
				<path id="&lt;Path&gt;" class="s6" d="m432.2 368.3l-9.8-5.7c-0.8-0.4-0.7-1.2 0.2-1.7l9.7-5.6c0.9-0.5 2.3-0.6 3.1-0.1l9.7 5.6c0.8 0.4 0.7 1.2-0.2 1.7l-9.7 5.6c-0.9 0.5-2.2 0.6-3 0.2z"/>
				<path id="&lt;Path&gt;" class="s6" d="m447.2 376.9l-9.7-5.6c-0.8-0.4-0.7-1.2 0.2-1.7l9.7-5.6c0.9-0.5 2.2-0.6 3-0.2l9.8 5.7c0.8 0.4 0.7 1.2-0.2 1.7l-9.7 5.6c-0.9 0.5-2.3 0.6-3.1 0.1z"/>
				<path id="&lt;Path&gt;" class="s6" d="m462.3 385.6l-9.8-5.6c-0.7-0.4-0.6-1.2 0.3-1.8l9.6-5.5c0.9-0.6 2.3-0.6 3.1-0.2l9.7 5.7c0.8 0.4 0.7 1.2-0.2 1.7l-9.7 5.6c-0.9 0.5-2.2 0.6-3 0.1z"/>
				<path id="&lt;Path&gt;" class="s6" d="m477.4 394.3l-9.8-5.6c-0.8-0.4-0.7-1.2 0.2-1.8l9.7-5.5c0.9-0.6 2.3-0.6 3-0.2l9.8 5.7c0.8 0.4 0.7 1.2-0.2 1.7l-9.7 5.6c-0.9 0.5-2.3 0.6-3 0.1z"/>
				<path id="&lt;Path&gt;" class="s6" d="m270.8 325.9l-28.8-16.6c-0.7-0.5-0.6-1.3 0.3-1.8l9.6-5.6c0.9-0.5 2.3-0.6 3.1-0.1l28.7 16.6c0.8 0.4 0.7 1.2-0.2 1.7l-9.7 5.6c-0.9 0.5-2.3 0.6-3 0.2z"/>
				<path id="&lt;Path&gt;" class="s6" d="m455.8 432.7l-28.7-16.6c-0.8-0.5-0.7-1.3 0.2-1.8l9.6-5.6c1-0.5 2.3-0.5 3.1-0.1l28.7 16.6c0.8 0.5 0.7 1.2-0.2 1.8l-9.7 5.5c-0.9 0.6-2.2 0.6-3 0.2z"/>
				<path id="&lt;Path&gt;" class="s6" d="m395.6 417.1l-9.8-5.6c-0.8-0.5-0.7-1.3 0.2-1.8l11.5-6.6c0.9-0.6 2.3-0.6 3.1-0.2l9.7 5.7c0.8 0.4 0.7 1.2-0.2 1.7l-11.5 6.7c-0.9 0.5-2.3 0.6-3 0.1z"/>
				<path id="&lt;Path&gt;" class="s6" d="m286.2 354l-15.6-9c-0.8-0.5-0.7-1.3 0.2-1.8l11.5-6.7c0.9-0.5 2.3-0.5 3.1-0.1l15.6 9c0.8 0.5 0.7 1.3-0.2 1.8l-11.6 6.6c-0.9 0.6-2.2 0.6-3 0.2z"/>
				<path id="&lt;Path&gt;" class="s6" d="m381 408.7l-15.5-9c-0.8-0.4-0.7-1.2 0.2-1.7l11.5-6.7c0.9-0.5 2.3-0.6 3-0.1l15.6 9c0.8 0.4 0.7 1.2-0.2 1.8l-11.5 6.6c-0.9 0.5-2.3 0.6-3.1 0.1z"/>
				<path id="&lt;Path&gt;" class="s6" d="m307.9 366.5l-15.6-9c-0.8-0.4-0.7-1.2 0.2-1.8l11.6-6.6c0.9-0.5 2.2-0.6 3-0.1l15.6 9c0.8 0.4 0.7 1.2-0.2 1.7l-11.5 6.7c-0.9 0.5-2.3 0.6-3.1 0.1z"/>
				<path id="&lt;Path&gt;" class="s6" d="m307.2 349l67.8 39.2c0.9 0.5 0.9 1.3 0 1.7l-11.7 6.8c-0.9 0.5-2.2 0.5-3.1 0l-67.8-39.1z"/>
				<path id="&lt;Path&gt;" class="s6" d="m437.7 432.9l10.8 6.2c0.7 0.4 0.6 1.1-0.2 1.5l-4.7 2.7c-0.7 0.4-1.8 0.5-2.5 0.1l-10.8-6.3c-0.7-0.3-0.6-1 0.1-1.4l4.7-2.7c0.8-0.5 1.9-0.5 2.6-0.1z"/>
				<path id="&lt;Path&gt;" class="s6" d="m422.5 424.1l10.8 6.3c0.7 0.3 0.6 1-0.2 1.4l-4.7 2.7c-0.7 0.5-1.8 0.5-2.5 0.1l-10.8-6.2c-0.7-0.4-0.6-1 0.2-1.5l4.7-2.7c0.7-0.4 1.8-0.5 2.5-0.1z"/>
				<path id="&lt;Path&gt;" class="s6" d="m407.4 415.4l10.9 6.3c0.6 0.4 0.5 1-0.2 1.4l-4.7 2.7c-0.8 0.5-1.9 0.5-2.5 0.1l-10.9-6.2c-0.6-0.4-0.5-1 0.2-1.5l4.7-2.7c0.7-0.4 1.9-0.5 2.5-0.1z"/>
				<path id="&lt;Path&gt;" class="s6" d="m430.8 419.3l10.8 6.3c0.7 0.3 0.6 1-0.1 1.4l-4.7 2.7c-0.8 0.5-1.9 0.5-2.5 0.1l-10.9-6.2c-0.7-0.4-0.6-1 0.2-1.5l4.7-2.7c0.7-0.4 1.8-0.5 2.5-0.1z"/>
			</g>
			<path id="&lt;Path&gt;" class="s7" d="m590.2 401.7l-287.8-166.1c-4.5-2.6-6.8-9-5.2-14.2l65-211.3c1.7-5.2 6.6-7.4 11.2-4.7l287.7 166.1c4.5 2.6 6.9 9 5.3 14.2l-65.1 211.3c-1.6 5.2-6.6 7.3-11.1 4.7z"/>
			<path id="&lt;Path&gt;" class="s8" d="m587.5 394.3l-279.1-161.2c-4.3-2.5-6.6-8.6-5.1-13.6l62.2-202c1.6-5 6.3-7.1 10.7-4.6l279.1 161.3c4.3 2.5 6.5 8.6 5 13.6l-62.2 202c-1.6 5-6.3 7-10.6 4.5z"/>
			<path id="&lt;Path&gt;" class="s9" d="m587.5 394.3l-279.1-161.2c-4.3-2.5-6.6-8.6-5.1-13.6l62.2-202c1.6-5 6.3-7.1 10.7-4.6l279.1 161.3c4.3 2.5 6.5 8.6 5 13.6l-62.2 202c-1.6 5-6.3 7-10.6 4.5z"/>
			<path id="&lt;Path&gt;" class="s9" d="m587.5 394.3l-279.1-161.2c-4.3-2.5-6.6-8.6-5.1-13.6l62.2-202c1.6-5 6.3-7.1 10.7-4.6l279.1 161.3c4.3 2.5 6.5 8.6 5 13.6l-62.2 202c-1.6 5-6.3 7-10.6 4.5z"/>
			<path id="&lt;Path&gt;" class="s10" d="m572.5 332.6l-189-109.1c-2.9-1.7-4.5-5.9-3.4-9.3l42.7-138.7c1.1-3.5 4.3-4.9 7.3-3.2l188.9 109.1c3 1.7 4.5 5.9 3.5 9.4l-42.7 138.7c-1.1 3.4-4.4 4.8-7.3 3.1z"/>
			<g id="&lt;Group&gt;">
				<path id="&lt;Path&gt;" class="s11" d="m546.9 335.9l-188.9-109c-2.9-1.7-4.5-5.9-3.4-9.4l42.7-138.7c1-3.4 4.3-4.8 7.3-3.1l188.9 109.1c3 1.7 4.5 5.9 3.5 9.3l-42.8 138.7c-1 3.5-4.3 4.9-7.3 3.1z"/>
			</g>
			<g id="&lt;Group&gt;" style="opacity: .5">
				<path id="&lt;Path&gt;" class="s6" d="m546.9 335.9l-188.9-109c-2.9-1.7-4.5-5.9-3.4-9.4l42.7-138.7c1-3.4 4.3-4.8 7.3-3.1l188.9 109.1c3 1.7 4.5 5.9 3.5 9.3l-42.8 138.7c-1 3.5-4.3 4.9-7.3 3.1z"/>
			</g>
			<path id="&lt;Path&gt;" class="s5" d="m593.5 184.8l-188.9-109.1c-1.9-1.1-3.9-0.9-5.3 0.2 0.9 0 1.8 0.2 2.7 0.7l188.9 109c3 1.8 4.5 5.9 3.5 9.4l-42.8 138.7c-0.3 1.3-1.1 2.3-1.9 2.9 2 0 3.8-1.4 4.5-3.8l42.8-138.7c1-3.4-0.5-7.6-3.5-9.3z"/>
			<path id="&lt;Compound Path&gt;" fill-rule="evenodd" class="s9" d="m308.7 449.2c-2.6 0-5.1-0.5-7-1.6l-75.7-43.7c-2-1.2-3.1-2.8-3.1-4.7 0-2.1 1.5-4.2 4.1-5.8l39-22.5c4.8-2.7 11.8-3 15.9-0.6l75.7 43.7c2 1.2 3.1 2.8 3.1 4.7 0 2.1-1.5 4.2-4.2 5.8l-38.9 22.5c-2.6 1.5-5.8 2.2-8.9 2.2zm-33.7-78.3c-2.8 0-5.7 0.7-7.9 1.9l-39 22.5c-1.9 1.2-3 2.6-3 3.9 0 1.3 1 2.3 2 2.8l75.7 43.7c3.4 2 9.7 1.7 13.7-0.6l39-22.5c1.9-1.2 3-2.6 3-3.9 0-1.3-1.1-2.3-2-2.8l-75.7-43.7c-1.5-0.9-3.6-1.3-5.8-1.3z"/>
		</g>
		<g id="&lt;Group&gt;">
			<g id="&lt;Group&gt;">
				<path id="&lt;Path&gt;" class="s5" d="m450.6 148.5l-11.7-6.8c-1.1-0.6-1.7-2.1-1.3-3.3 0.4-1.3 1.6-1.7 2.6-1.1l11.7 6.7c1.1 0.6 1.7 2.1 1.3 3.4-0.3 1.2-1.5 1.7-2.6 1.1z"/>
				<path id="&lt;Path&gt;" class="s5" d="m478.4 164.5l-17.2-9.9c-1.1-0.6-1.7-2.1-1.3-3.4 0.4-1.2 1.5-1.7 2.6-1.1l17.2 10c1.1 0.6 1.7 2.1 1.3 3.3-0.3 1.3-1.5 1.8-2.6 1.1z"/>
				<path id="&lt;Path&gt;" class="s5" d="m427 200.5l-11.6-6.8c-1.1-0.6-1.7-2.1-1.3-3.3 0.3-1.3 1.5-1.7 2.6-1.1l11.7 6.7c1 0.6 1.6 2.1 1.3 3.4-0.4 1.2-1.6 1.7-2.7 1.1z"/>
				<path id="&lt;Path&gt;" class="s5" d="m451.8 214.8l-17.2-10c-1.1-0.6-1.6-2.1-1.3-3.3 0.4-1.2 1.6-1.7 2.6-1.1l17.3 9.9c1 0.7 1.6 2.2 1.3 3.4-0.4 1.2-1.6 1.7-2.7 1.1z"/>
				<path id="&lt;Path&gt;" class="s5" d="m415.6 139.2l-7.3-4.2c-1.1-0.6-1.7-2.1-1.3-3.4 0.4-1.2 1.6-1.7 2.6-1.1l7.3 4.3c1.1 0.6 1.7 2.1 1.3 3.3-0.3 1.2-1.5 1.7-2.6 1.1z"/>
				<path id="&lt;Path&gt;" class="s5" d="m437.6 162.8l-22.3-12.9c-1.1-0.6-1.7-2.1-1.3-3.3 0.3-1.2 1.5-1.7 2.6-1.1l22.3 12.9c1.1 0.6 1.7 2.1 1.3 3.3-0.4 1.2-1.6 1.7-2.6 1.1z"/>
				<path id="&lt;Path&gt;" class="s5" d="m417 172.8l-7.3-4.2c-1.1-0.6-1.7-2.1-1.3-3.4 0.4-1.2 1.5-1.7 2.6-1.1l7.3 4.3c1.1 0.6 1.7 2.1 1.3 3.3-0.3 1.2-1.5 1.7-2.6 1.1z"/>
				<path id="&lt;Path&gt;" class="s5" d="m454.5 238.2l-19.5-11.2c-1-0.7-1.6-2.2-1.3-3.4 0.4-1.2 1.6-1.7 2.7-1.1l19.5 11.3c1 0.6 1.6 2.1 1.3 3.3-0.4 1.2-1.6 1.7-2.7 1.1z"/>
				<path id="&lt;Path&gt;" class="s5" d="m408.8 190l-4.7-2.8c-1-0.6-1.6-2.1-1.3-3.3 0.4-1.2 1.6-1.7 2.7-1.1l4.6 2.7c1.1 0.6 1.7 2.1 1.3 3.4-0.3 1.2-1.5 1.7-2.6 1.1z"/>
				<path id="&lt;Path&gt;" class="s5" d="m404.4 209.3l-5.8-3.4c-1.1-0.6-1.7-2.1-1.3-3.4 0.3-1.2 1.5-1.7 2.6-1l5.8 3.3c1.1 0.6 1.7 2.1 1.3 3.4-0.4 1.2-1.5 1.7-2.6 1.1z"/>
				<path id="&lt;Path&gt;" class="s5" d="m427 222.3l-15.3-8.8c-1.1-0.7-1.7-2.2-1.3-3.4 0.3-1.2 1.5-1.7 2.6-1.1l15.3 8.9c1.1 0.6 1.7 2.1 1.3 3.3-0.3 1.3-1.5 1.7-2.6 1.1z"/>
				<path id="&lt;Path&gt;" class="s5" d="m406.8 221.6l-11-6.4c-1.1-0.6-1.7-2.1-1.3-3.3 0.4-1.3 1.5-1.7 2.6-1.1l11 6.3c1.1 0.7 1.7 2.2 1.3 3.4-0.3 1.2-1.5 1.7-2.6 1.1z"/>
				<path id="&lt;Path&gt;" class="s5" d="m471.2 247.9l-7-4.1c-1.1-0.6-1.7-2.1-1.3-3.3 0.3-1.3 1.5-1.8 2.6-1.1l7.1 4.1c1.1 0.6 1.6 2.1 1.3 3.3-0.4 1.2-1.6 1.7-2.7 1.1z"/>
				<path id="&lt;Path&gt;" class="s5" d="m444.1 188.5l-19.4-11.3c-1.1-0.6-1.7-2.1-1.3-3.3 0.3-1.3 1.5-1.8 2.6-1.1l19.5 11.2c1 0.7 1.6 2.2 1.3 3.4-0.4 1.2-1.6 1.7-2.7 1.1z"/>
			</g>
			<path id="&lt;Path&gt;" class="s12" d="m446.4 178.9l-33.9-19.6c-1.1-0.7-1.7-2.2-1.3-3.4 0.4-1.2 1.5-1.7 2.6-1.1l34 19.6c1.1 0.7 1.6 2.2 1.3 3.4-0.4 1.2-1.6 1.7-2.7 1.1z"/>
			<path id="&lt;Path&gt;" class="s12" d="m426.4 189.2l-19.5-11.3c-1.1-0.6-1.6-2.1-1.3-3.3 0.4-1.3 1.6-1.8 2.6-1.1l19.5 11.2c1.1 0.6 1.7 2.2 1.3 3.4-0.3 1.2-1.5 1.7-2.6 1.1z"/>
			<path id="&lt;Path&gt;" class="s12" d="m458.9 197l-7.1-4.1c-1-0.6-1.6-2.1-1.3-3.3 0.4-1.3 1.6-1.8 2.7-1.1l7 4.1c1.1 0.6 1.7 2.1 1.3 3.3-0.3 1.2-1.5 1.7-2.6 1.1z"/>
			<path id="&lt;Path&gt;" class="s12" d="m530.9 194.9l-41.9-24.2c-1.1-0.7-1.7-2.2-1.3-3.4 0.4-1.2 1.6-1.7 2.6-1.1l42 24.2c1.1 0.6 1.6 2.1 1.3 3.4-0.4 1.2-1.6 1.7-2.7 1.1z"/>
			<path id="&lt;Path&gt;" class="s13" d="m424.8 210.1l-23.4-13.5c-1.1-0.6-1.7-2.2-1.3-3.4 0.3-1.2 1.5-1.7 2.6-1.1l23.4 13.5c1.1 0.7 1.7 2.2 1.3 3.4-0.4 1.2-1.5 1.7-2.6 1.1z"/>
			<path id="&lt;Path&gt;" class="s13" d="m428.3 135.6l-17.2-9.9c-1.1-0.7-1.7-2.2-1.3-3.4 0.4-1.2 1.5-1.7 2.6-1.1l17.2 10c1.1 0.6 1.7 2.1 1.3 3.3-0.3 1.2-1.5 1.7-2.6 1.1z"/>
			<path id="&lt;Path&gt;" class="s12" d="m403.2 230.4l-19.9-11.5c-1.1-0.6-1.7-2.1-1.3-3.3 0.3-1.3 1.5-1.7 2.6-1.1l19.9 11.5c1.1 0.6 1.7 2.1 1.3 3.4-0.3 1.2-1.5 1.7-2.6 1z"/>
		</g>
		<g id="&lt;Group&gt;">
			<path id="&lt;Path&gt;" class="s5" d="m535.6 173.3l-8.5-4.9c-0.8-0.5-1.2-1.6-0.9-2.5 0.2-0.9 1.1-1.2 1.9-0.8l8.5 4.9c0.8 0.5 1.2 1.6 1 2.5-0.3 0.9-1.2 1.3-2 0.8z"/>
			<path id="&lt;Path&gt;" class="s5" d="m551.9 182.7l-8.5-4.9c-0.8-0.5-1.2-1.6-1-2.5 0.3-0.9 1.2-1.2 2-0.8l8.5 4.9c0.8 0.5 1.2 1.6 1 2.5-0.3 0.9-1.2 1.3-2 0.8z"/>
			<path id="&lt;Path&gt;" class="s5" d="m568.2 192.1l-8.5-4.9c-0.8-0.5-1.2-1.6-1-2.5 0.3-0.9 1.2-1.2 1.9-0.8l8.6 4.9c0.8 0.5 1.2 1.6 0.9 2.5-0.2 0.9-1.1 1.3-1.9 0.8z"/>
			<path id="&lt;Path&gt;" class="s13" d="m576.2 196.7l-0.2-0.1c-0.8-0.5-1.3-1.6-1-2.5 0.3-0.9 1.1-1.2 1.9-0.8l0.3 0.2c0.8 0.4 1.2 1.5 0.9 2.4-0.2 0.9-1.1 1.3-1.9 0.8z"/>
		</g>
		<path id="&lt;Compound Path&gt;" fill-rule="evenodd" class="s14" d="m135.6 296.6c-5.4 0-10.8-1.4-15.6-4.1l-57.2-33.1c-2.5-1.4-4-4-4-6.8 0-2.9 1.5-5.4 4-6.9l57.2-33c9.6-5.6 21.6-5.6 31.2 0l57.2 33c2.5 1.5 4 4 4 6.9 0 2.9-1.5 5.4-4 6.8l-57.2 33.1c-4.8 2.7-10.2 4.1-15.6 4.1zm-13.8-7.4c8.5 4.9 19.1 4.9 27.6 0l57.1-33c1.4-0.7 2.1-2.1 2.1-3.6 0-1.5-0.7-2.9-2.1-3.6l-57.1-33.1c-8.5-4.9-19.1-4.9-27.6 0l-57.2 33.1c-1.3 0.7-2.1 2.1-2.1 3.6 0 1.5 0.8 2.9 2.1 3.6z"/>
		<g id="&lt;Group&gt;">
			<path id="&lt;Path&gt;" class="s0" d="m163.1 269.4c-15.4 8.9-40.2 8.9-55.6 0-15.3-8.9-15.3-23.2 0-32.1 15.4-8.8 40.2-8.8 55.6 0 15.3 8.9 15.3 23.2 0 32.1z"/>
			<path id="&lt;Path&gt;" class="s15" d="m193.5 91.7h-111.9l10.5 121.2c0 6.7 4.4 13.4 13.3 18.6 17.8 10.2 46.6 10.2 64.4 0 8.9-5.2 13.3-11.9 13.3-18.6z"/>
			<path id="&lt;Path&gt;" class="s9" d="m193.5 91.7h-111.9l1.8 20c2.5 3.2 6 6.4 10.3 9.3 21.4 14.2 56.7 16.9 80.8 6.7l-3.8 88.6c-0.1 3.8-1.5 7.6-4 10.6-3.6 4.2-10.6 9.2-24 12.1 9.9-0.7 19.5-3.2 27.1-7.5 8.9-5.2 13.3-11.9 13.3-18.6l8.4-97.2z"/>
			<path id="&lt;Path&gt;" class="s9" d="m177.1 114.6c-21.8 12.6-57.2 12.6-79.1 0-21.8-12.6-21.8-33.1 0-45.7 21.9-12.6 57.3-12.6 79.1 0 21.9 12.6 21.9 33.1 0 45.7z"/>
			<path id="&lt;Path&gt;" class="s9" d="m171.7 100c-18.9 10.9-49.4 10.9-68.2 0-18.8-10.9-18.8-28.5 0-39.3 18.8-10.9 49.3-10.9 68.2 0 18.8 10.8 18.8 28.4 0 39.3z"/>
			<path id="&lt;Path&gt;" class="s16" d="m196.8 90.2h0.1l-0.1-0.1q0-0.1 0-0.2l-1-10.8-0.1 0.1c-0.5-8.2-6.1-16.3-17-22.6-22.7-13.1-59.5-13.1-82.2 0-11.2 6.4-16.8 14.8-17 23.2h-0.1l-1 9.7q0 0.4-0.1 0.7v0.2c-0.6 9.2 5.2 18.5 17.3 25.5 23.2 13.4 60.8 13.4 83.9 0 12.3-7 18-16.4 17.3-25.7z"/>
			<path id="&lt;Path&gt;" class="s17" d="m171.7 100c-18.9 10.9-49.4 10.9-68.2 0-18.8-10.9-18.8-28.5 0-39.3 18.8-10.9 49.3-10.9 68.2 0 18.8 10.8 18.8 28.4 0 39.3z"/>
			<path id="&lt;Path&gt;" class="s18" d="m169.4 100c-18.8 10.9-49.3 10.9-68.2 0-18.8-10.9-18.8-28.5 0-39.3 18.9-10.9 49.4-10.9 68.2 0 18.8 10.8 18.8 28.4 0 39.3z"/>
			<path id="&lt;Path&gt;" class="s9" d="m109.2 64.8c18.9-10.8 49.4-10.8 68.2 0 0.2 0.2 0.4 0.3 0.7 0.4q-2.8-2.4-6.4-4.5c-18.9-10.9-49.4-10.9-68.2 0-18.6 10.7-18.8 28-0.7 38.9-12-10.8-9.9-25.3 6.4-34.8z"/>
			<path id="&lt;Path&gt;" class="s19" d="m103.5 65.5c18.8-10.9 49.3-10.9 68.2 0 8.3 4.8 12.9 11 13.9 17.3 1.2-7.9-3.5-16.1-13.9-22.1-18.9-10.9-49.4-10.9-68.2 0-10.5 6-15.1 14.2-13.9 22.1 0.9-6.3 5.6-12.5 13.9-17.3z"/>
			<path id="&lt;Compound Path&gt;" fill-rule="evenodd" class="s20" d="m178.7 104.5c-23 13-59.9 12.7-82.6-0.7-22.7-13.4-22.5-34.7 0.4-47.7 22.9-12.9 59.9-12.6 82.6 0.8 22.7 13.3 22.5 34.7-0.4 47.6zm-7-43.8c-18.9-10.9-49.4-10.9-68.2 0-18.8 10.8-18.8 28.4 0 39.3 6.3 3.6 13.9 6 21.9 7.2l0.9-2.8c0.4-1.2 1.4-2 2.6-2h17.3c1.3 0 2.3 0.8 2.7 2l0.9 2.8c8-1.2 15.6-3.6 21.9-7.2 18.8-10.9 18.8-28.5 0-39.3z"/>
			<g id="&lt;Group&gt;">
				<path id="&lt;Path&gt;" class="s5" d="m171.7 58.6c-18.9-10.9-49.4-10.9-68.2 0-9.8 5.7-14.5 13.3-14 20.7 0.4-6.8 5.1-13.5 14-18.6 18.8-10.9 49.3-10.9 68.2 0 8.9 5.1 13.6 11.8 14 18.6 0.5-7.4-4.2-15-14-20.7z"/>
				<path id="&lt;Path&gt;" class="s5" d="m178.7 102.5c-23 12.9-59.9 12.6-82.6-0.8-10.8-6.3-16.4-14.5-16.8-22.7-0.5 8.9 5.1 17.9 16.8 24.8 22.7 13.4 59.6 13.7 82.6 0.7 12-6.8 17.7-15.9 17.2-24.9-0.4 8.4-6.1 16.6-17.2 22.9z"/>
			</g>
			<path id="&lt;Path&gt;" class="s21" d="m142.8 108.7h-10.4c-0.7 0-1.3-0.6-1.3-1.3v-0.2c0-0.7 0.6-1.3 1.3-1.3h10.4c0.7 0 1.3 0.6 1.3 1.3v0.2c0 0.7-0.6 1.3-1.3 1.3z"/>
			<path id="&lt;Path&gt;" class="s22" d="m142.8 105.9h-10.4c-0.7 0-1.3 0.6-1.3 1.3v0.2q0 0.2 0.1 0.4c0.1-0.6 0.6-1 1.2-1h10.4c0.6 0 1 0.4 1.2 1q0.1-0.2 0.1-0.4v-0.2c0-0.7-0.6-1.3-1.3-1.3z"/>
			<g id="&lt;Group&gt;">
				<path id="&lt;Path&gt;" class="s12" d="m139.2 200.4c-1.3 4.8-6.2 7.6-11 6.4-4.7-1.3-7.6-6.2-6.3-11 1.3-4.7 5.8-6.1 10.5-4.8 4.8 1.2 8 4.7 6.8 9.4z"/>
				<path id="&lt;Path&gt;" class="s12" d="m146.2 191c-1.8 1.8-4.1 1.5-5.6 0-1.5-1.6-1.7-3.9 0.1-5.7 1.8-1.7 5.2-2.6 6.7-1 1.6 1.5 0.6 4.9-1.2 6.7z"/>
				<path id="&lt;Path&gt;" class="s12" d="m136.9 183.5c-0.5 2.5-2.5 3.7-4.6 3.3-2.2-0.4-3.7-2.2-3.2-4.7 0.4-2.4 2.7-5.1 4.8-4.7 2.2 0.3 3.4 3.6 3 6.1z"/>
				<path id="&lt;Path&gt;" class="s12" d="m125.3 182.4c1 2.3-0.1 4.4-2.1 5.2-2 0.8-4.2 0.1-5.2-2.2-0.9-2.3-0.5-5.8 1.6-6.7 2-0.8 4.8 1.4 5.7 3.7z"/>
			</g>
		</g>
		<path id="&lt;Path&gt;" class="s23" d="m141.3 107.3c0 0 31.2-10.4 18.6-46.4-12.7-35.9-37.4-46.9-27.4-75.6 0 0-15.6 23.2-1 54.7 14.5 31.5 17.7 27.9 17.5 43-0.2 17.9-14.6 24.3-14.6 24.3z"/>
		<path id="&lt;Path&gt;" class="s23" d="m144.1-9.7c0 0-3.3-21.5 16.9-43.2 0 0-17.9 39.8-12 59.5 0 0-4.7-12.5-4.9-16.3z"/>
	</g>
</svg>