<svg version="1.2" xmlns="http://www.w3.org/2000/svg" viewBox="0 0 700 600" width="700" height="600">
	<title>hero-img-svg</title>
	<defs>
		<linearGradient id="g1" x1="49.9" y1="255.6" x2="634.6" y2="255.6" gradientUnits="userSpaceOnUse">
			<stop offset="0" stop-color="#e39a65"/>
			<stop offset="1" stop-color="#e95f8d"/>
		</linearGradient>
		<linearGradient id="g2" x1="58.8" y1="208.5" x2="212.4" y2="208.5" gradientUnits="userSpaceOnUse">
			<stop offset="0" stop-color="#e39a65"/>
			<stop offset="1" stop-color="#e95f8d"/>
		</linearGradient>
	</defs>
	<style>
		.s0 { opacity: .6;fill: #020230 } 
		.s1 { fill: url(#g1) } 
		.s2 { fill: url(#g2) } 
	</style>
	<path id="&lt;Path&gt;" class="s0" d="m386.2 566.6l-288.8-166.8c-4.2-2.4-3.7-6.7 1.2-9.5l185.4-107c4.8-2.8 12.2-3.1 16.4-0.7l288.8 166.8c4.2 2.4 3.7 6.6-1.1 9.4l-185.4 107.1c-4.9 2.8-12.2 3.1-16.5 0.7z"/>
	<path id="&lt;Compound Path&gt;" fill-rule="evenodd" class="s1" d="m392.9 596.7c-3.4 0-6.7-0.7-9.1-2.2l-329.7-190.3c-2.7-1.6-4.2-3.8-4.2-6.3 0-2.9 2-5.7 5.5-7.7l224.8-131.7c6.1-3.6 15.2-3.9 20.6-0.8l329.7 190.3c2.7 1.6 4.1 3.8 4.1 6.4 0 2.8-2 5.7-5.5 7.7l-224.7 131.7c-3.4 1.9-7.5 2.9-11.5 2.9zm-101.2-337.4c-3.3 0-6.9 0.8-9.7 2.4l-224.7 131.7c-2.3 1.3-3.7 3-3.7 4.5 0 1.4 1.3 2.5 2.4 3.1l329.6 190.3c4.2 2.5 12 2.1 16.9-0.8l224.7-131.6c2.3-1.4 3.7-3 3.7-4.5 0-1.5-1.2-2.5-2.3-3.1l-329.7-190.4c-1.9-1.1-4.4-1.6-7.2-1.6z"/>
	<path id="&lt;Path&gt;" class="s0" d="m163.1 269.4c-15.4 8.9-40.2 8.9-55.6 0-15.3-8.9-15.3-23.2 0-32.1 15.4-8.8 40.2-8.8 55.6 0 15.3 8.9 15.3 23.2 0 32.1z"/>
	<path id="&lt;Compound Path&gt;" fill-rule="evenodd" class="s2" d="m135.6 296.6c-5.4 0-10.8-1.4-15.6-4.1l-57.2-33.1c-2.5-1.4-4-4-4-6.8 0-2.9 1.5-5.4 4-6.9l57.2-33c9.6-5.6 21.6-5.6 31.2 0l57.2 33c2.5 1.5 4 4 4 6.9 0 2.9-1.5 5.4-4 6.8l-57.2 33.1c-4.8 2.7-10.2 4.1-15.6 4.1zm-13.8-7.4c8.5 4.9 19.1 4.9 27.6 0l57.1-33c1.4-0.7 2.1-2.1 2.1-3.6 0-1.5-0.7-2.9-2.1-3.6l-57.1-33.1c-8.5-4.9-19.1-4.9-27.6 0l-57.2 33.1c-1.3 0.7-2.1 2.1-2.1 3.6 0 1.5 0.8 2.9 2.1 3.6z"/>
</svg>